<?xml version="1.0" standalone="no"?>
<!DOCTYPE svg PUBLIC "-//W3C//DTD SVG 20010904//EN"
 "http://www.w3.org/TR/2001/REC-SVG-20010904/DTD/svg10.dtd">
<svg version="1.0" xmlns="http://www.w3.org/2000/svg"
 width="575.000000pt" height="575.000000pt" viewBox="0 0 575.000000 575.000000"
 preserveAspectRatio="xMidYMid meet">
<metadata>
Created by potrace 1.14, written by Peter Selinger 2001-2017
</metadata>
<g transform="translate(0.000000,575.000000) scale(0.100000,-0.100000)"
fill="#000000" stroke="none">
<path d="M3408 5645 c-2 -1 -33 -5 -69 -9 -79 -7 -244 -48 -288 -70 -17 -9
-31 -14 -31 -12 0 10 -154 -75 -225 -125 -98 -67 -212 -179 -265 -259 -8 -12
-21 -29 -28 -36 -19 -20 -134 -244 -125 -244 4 0 2 -5 -5 -12 -7 -7 -12 -22
-12 -33 0 -12 -3 -25 -7 -29 -4 -3 -8 -12 -9 -19 -1 -7 -6 -30 -12 -52 -34
-126 -37 -362 -8 -510 12 -56 47 -167 71 -221 13 -30 25 -58 25 -62 1 -4 7
-14 14 -22 7 -8 18 -30 26 -47 7 -18 15 -33 19 -33 4 0 15 -16 25 -35 11 -19
22 -35 26 -35 4 0 12 -12 18 -26 7 -15 17 -22 24 -18 6 4 8 3 4 -4 -7 -12 151
-172 171 -172 7 0 13 -4 13 -9 0 -10 136 -99 190 -123 223 -103 424 -138 645
-114 79 9 110 14 110 16 0 1 7 3 15 5 62 13 147 39 159 48 8 7 17 11 20 10 12
-5 41 9 41 19 0 6 3 9 6 5 7 -6 114 46 167 81 15 10 24 22 20 27 -5 4 -3 5 3
2 23 -13 187 138 265 245 21 29 42 58 47 63 12 15 88 163 105 205 31 77 37 98
53 165 8 39 18 90 22 115 8 61 8 255 -1 310 -15 99 -18 116 -27 140 -6 14 -11
34 -13 45 -4 22 -7 28 -48 128 -27 67 -104 199 -144 246 -54 65 -93 108 -124
136 -19 16 -46 40 -60 53 -37 33 -171 122 -171 114 0 -4 -4 -2 -8 4 -8 13 -82
48 -94 46 -5 -1 -8 2 -8 6 0 5 -6 9 -12 9 -7 1 -36 10 -64 21 -48 18 -139 43
-174 48 -8 1 -35 5 -60 8 -46 7 -207 15 -212 11z m233 -148 c19 -2 40 -6 46
-10 5 -3 24 -9 42 -12 47 -8 154 -50 226 -87 133 -70 299 -222 375 -343 25
-38 49 -73 55 -77 5 -4 6 -8 2 -8 -5 0 0 -15 10 -32 20 -33 65 -158 78 -213
44 -191 36 -344 -29 -580 -10 -37 -94 -207 -106 -215 -4 -3 -13 -15 -19 -28
-33 -63 -179 -208 -266 -266 -38 -25 -75 -51 -82 -56 -7 -6 -14 -10 -17 -10
-2 0 -33 -13 -68 -29 -64 -29 -158 -59 -213 -68 -16 -3 -49 -8 -72 -13 -46 -8
-235 -5 -298 4 -90 15 -176 42 -290 92 -48 20 -182 111 -227 152 -22 20 -46
35 -52 34 -6 -2 -8 0 -4 4 4 3 -13 30 -39 58 -25 28 -62 76 -83 106 -40 59
-108 196 -115 230 -2 11 -7 25 -10 30 -3 5 -8 19 -11 30 -2 11 -7 30 -10 43
-40 154 -36 373 10 522 2 6 7 23 11 39 4 16 14 41 21 55 8 14 14 34 14 44 0 9
5 17 10 17 6 0 10 9 10 20 0 11 5 20 11 20 6 0 9 6 6 14 -3 8 -2 16 2 18 4 2
27 32 51 68 94 140 214 250 355 326 39 21 73 43 77 48 4 6 8 8 8 4 0 -4 24 2
53 13 144 58 319 76 538 56z"/>
<path d="M3490 5239 c-59 -13 -115 -50 -149 -99 -25 -36 -33 -62 -40 -121 -5
-41 -15 -89 -24 -106 -9 -17 -14 -33 -12 -37 3 -3 2 -4 -1 -2 -3 2 -19 -10
-36 -26 -17 -17 -56 -42 -87 -55 -106 -46 -154 -116 -154 -220 0 -35 5 -69 12
-76 6 -8 9 -16 6 -19 -3 -2 12 -24 32 -47 24 -29 59 -54 107 -75 108 -49 149
-107 160 -223 6 -65 23 -113 39 -113 6 0 7 -3 4 -7 -9 -8 32 -53 49 -53 6 0
14 -6 17 -14 7 -17 88 -37 142 -35 46 2 111 33 140 68 11 13 30 33 42 44 12
11 20 24 17 29 -3 5 -2 8 3 7 4 -1 25 5 46 15 56 25 115 30 177 14 150 -38
279 51 294 203 4 42 -20 139 -34 139 -4 0 -18 23 -30 52 -27 63 -28 133 -2
185 11 21 30 57 42 81 29 55 32 114 9 176 -43 117 -163 177 -282 142 -59 -17
-125 -12 -173 12 -39 20 -50 30 -108 95 -14 15 -30 27 -36 27 -5 0 -10 4 -10
8 0 10 -70 36 -77 29 -3 -3 -15 -2 -27 2 -11 4 -37 4 -56 0z"/>
<path d="M1065 3944 c-38 -13 -45 -19 -69 -64 -23 -42 -9 -89 72 -247 42 -84
78 -158 80 -165 2 -7 10 -19 19 -25 9 -7 14 -13 10 -13 -4 0 85 -183 197 -407
207 -412 207 -411 197 -484 -1 -10 -69 -78 -128 -130 -29 -25 -50 -49 -45 -53
4 -4 2 -6 -4 -4 -6 2 -37 -21 -70 -51 -32 -30 -52 -50 -44 -46 9 5 12 5 7 -1
-5 -5 -12 -9 -17 -9 -4 0 -50 -39 -102 -86 -51 -48 -119 -111 -152 -140 -32
-30 -71 -65 -86 -79 -15 -14 -67 -61 -115 -105 -196 -179 -195 -177 -188 -215
8 -56 19 -71 103 -158 54 -56 105 -83 185 -97 42 -7 223 -7 400 1 263 12 710
6 855 -12 25 -3 59 -6 76 -8 17 -2 35 -6 40 -8 11 -7 71 -20 80 -18 4 1 10 -2
13 -7 3 -4 24 -17 46 -28 66 -33 149 -125 194 -216 23 -45 41 -90 41 -100 0
-11 4 -19 8 -19 4 0 8 -8 8 -17 1 -18 5 -46 22 -136 11 -53 9 -298 -3 -428
l-8 -85 33 -38 c49 -55 109 -86 166 -87 63 -1 83 4 95 22 5 8 9 10 9 6 0 -5
18 2 41 15 47 26 165 146 206 210 15 24 30 45 33 48 10 9 63 103 118 210 29
58 71 128 92 156 21 29 37 54 34 58 -2 3 -1 4 3 1 3 -2 15 5 27 18 12 12 46
33 76 47 166 74 243 159 327 360 28 66 99 281 108 328 10 54 90 345 109 401
36 103 87 203 121 239 35 38 6 35 430 47 361 10 356 9 388 65 20 33 28 78 17
85 -5 3 -7 11 -5 18 7 21 -37 63 -105 98 -36 19 -67 36 -70 39 -3 3 -30 17
-60 32 -53 27 -117 61 -335 179 -55 30 -122 65 -150 79 -27 14 -56 31 -63 38
-8 7 -17 10 -22 7 -5 -3 -10 -1 -12 3 -1 5 -57 37 -123 72 -66 34 -125 66
-130 71 -20 15 -70 16 -102 3 -18 -7 -33 -10 -33 -7 0 3 -6 1 -12 -4 -7 -6
-26 -14 -43 -18 -194 -51 -244 -58 -425 -57 -161 0 -230 5 -230 14 0 3 -11 5
-25 3 -14 -1 -25 1 -25 4 0 4 -10 7 -22 8 -12 1 -33 7 -47 12 -14 6 -35 12
-46 14 -11 2 -37 11 -59 20 -21 9 -40 17 -42 17 -9 0 -132 61 -158 79 -17 11
-33 18 -38 15 -4 -3 -8 -1 -8 4 0 5 -12 17 -26 27 -18 11 -24 13 -18 4 4 -8
-6 0 -22 16 -17 17 -50 46 -74 65 -24 19 -51 43 -59 53 -9 9 -21 17 -29 17 -7
0 -11 4 -8 8 3 5 -5 18 -17 29 -23 21 -71 76 -135 159 -36 46 -45 52 -117 72
-43 11 -82 19 -87 16 -4 -3 -8 0 -8 5 0 6 -12 11 -26 11 -14 0 -34 4 -44 10
-10 5 -35 11 -54 12 -20 2 -36 6 -36 9 0 5 -59 21 -125 35 -5 1 -30 7 -55 14
-25 7 -52 14 -60 15 -8 2 -69 18 -135 35 -66 18 -127 34 -135 36 -8 1 -92 23
-186 47 -158 41 -174 43 -209 31z"/>
</g>
</svg>
